<?xml version="1.0" encoding="UTF-8"?>
<!DOCTYPE svg PUBLIC "-//W3C//DTD SVG 1.1//EN" "http://www.w3.org/Graphics/SVG/1.1/DTD/svg11.dtd">
<!-- Creator: CorelDRAW -->
<svg xmlns="http://www.w3.org/2000/svg" xml:space="preserve" width="850px" height="850px" version="1.1" style="shape-rendering:geometricPrecision; text-rendering:geometricPrecision; image-rendering:optimizeQuality; fill-rule:evenodd; clip-rule:evenodd"
viewBox="0 0 850 850"
 xmlns:xlink="http://www.w3.org/1999/xlink">
 <defs>
  <style type="text/css">
   <![CDATA[
    .fil0 {fill:black}
    .fil1 {fill:white}
   ]]>
  </style>
 </defs>
 <g id="Layer_x0020_1">
  <metadata id="CorelCorpID_0Corel-Layer"/>
  <circle class="fil0" cx="425" cy="425" r="425"/>
  <g id="_481286088">
   <g>
    <path class="fil1" d="M509 617c-3,0 -6,-2 -7,-5l-77 -233 -75 232c-1,4 -6,6 -9,5 -4,-1 -6,-6 -5,-9l82 -254c1,-2 4,-5 7,-5 3,0 6,3 7,5l84 254c1,4 -1,8 -5,9 -1,1 -2,1 -2,1z"/>
   </g>
   <g>
    <path class="fil1" d="M567 658l-282 0c-4,0 -8,-3 -8,-8l0 -6c0,-23 19,-42 42,-42l214 0c23,0 41,19 41,42l0 6c1,5 -3,8 -7,8zm-275 -15l268 0c-1,-14 -13,-26 -27,-26l-214 0c-15,0 -27,11 -27,26z"/>
   </g>
   <g>
    <g>
     <path class="fil1" d="M201 423c-2,0 -3,0 -4,0 -2,-1 -3,-3 -3,-5l-12 -45c-1,-4 1,-8 5,-9l473 -127c2,0 4,0 6,1 1,1 3,3 3,5l12 45c1,4 -1,8 -5,9l-474 126c0,0 -1,0 -1,0zm-4 -47l9 31 459 -123 -8 -31 -460 123z"/>
    </g>
    <g>
     <path class="fil1" d="M189 378c-4,0 -7,-2 -7,-5l-13 -45c0,-2 0,-4 1,-6 1,-1 2,-3 4,-3l50 -13c4,-2 8,1 9,5l12 45c1,2 1,4 -1,5 0,2 -2,3 -4,4l-50 13c0,0 -1,0 -1,0zm-4 -47l9 32 35 -10 -8 -31 -36 9z"/>
    </g>
    <g>
     <path class="fil1" d="M279 354c-1,0 -2,0 -4,-1 -1,0 -3,-2 -3,-4l-12 -46c-1,-3 1,-7 5,-8l49 -14c4,0 8,2 9,5l12 45c1,4 -1,8 -5,9l-49 13c-1,1 -2,1 -2,1zm-3 -47l8 31 36 -10 -8 -30 -36 9z"/>
    </g>
    <g>
     <path class="fil1" d="M612 265c-1,0 -2,0 -3,-1 -2,-1 -3,-2 -4,-4l-12 -46c-1,-3 1,-8 5,-8l50 -14c4,-1 8,1 9,5l12 45c1,4 -1,8 -5,9l-50 13c0,1 -1,1 -2,1zm-3 -47l9 31 36 -10 -9 -31 -36 10z"/>
    </g>
   </g>
  </g>
 </g>
</svg>
