<?xml version="1.0" encoding="utf-8"?>
<!-- Generator: Adobe Illustrator 24.1.3, SVG Export Plug-In . SVG Version: 6.00 Build 0)  -->
<svg version="1.1" id="Layer_1" xmlns="http://www.w3.org/2000/svg" xmlns:xlink="http://www.w3.org/1999/xlink" x="0px" y="0px"
	 viewBox="0 0 262.4077 181.2304" enable-background="new 0 0 262.4077 181.2304" xml:space="preserve">
<g>
	<path d="M254.3632,18.9414l-17.8779-7.3868c-7.0517-2.9121-15.5117,1.3614-18.8916,9.5469l-28.831,69.7969h-7.0879
		c1.4736-3.0391,2.9131-6.2783,4.3701-9.8106c5.8232-14.3476-0.4639-25.9726-8.2979-29.9746
		c-5.2382-2.6767-11.7334-0.6474-16.7724,3.795c-2.9219,1.4306-7.459,3.0234-13.1748,2.998
		c-5.5645-0.0146-12.4219-1.3984-20.7471-6.2353c-1.459-0.8506-3.0752-1.1846-4.6406-1.0635l-4.4746-28.3223l-6.1407,1.4004
		l-1.2265-4.9209l-10.7871,3.4756l11.33,35.1592c1.3692-1.5498,3.1836-2.6465,5.1797-3.125
		c0.7539-0.1807,1.5313-0.2754,2.3184-0.2754c1.5879,0,3.1172,0.372,4.5068,1.0801c0.5166,0.2627,1.0157,0.5683,1.4883,0.9238
		c8.6211,6.4346,16.4815,9.582,24.0264,9.6162c1.7324-0.002,3.4248-0.1914,5.0732-0.5459c2.1309-0.457,4.1865-1.1953,6.1397-2.2324
		c2.6103-1.3867,4.1318-2.874,4.1474-2.8867c1.8946-1.9678,4.4541-3.0567,7.1992-3.0567c2.4278,0,4.7374,0.8789,6.5596,2.4668
		c0.0967,0.084,0.1973,0.1611,0.291,0.249c4.0127,3.7784,4.2061,10.1172,0.4317,14.1338c-0.961,1.0069-3.668,3.6055-8.2481,6.209
		c-4.5488,2.583-11.9843,5.6611-21.581,5.6611h-0.0215h-0.1152c-2.212,0-4.4512-0.1709-6.7081-0.5058
		c-1.2783,1.9502-2.6074,3.8857-3.9863,5.7871h-9.8232l0.5185-0.167l-0.3906-1.5645l0.3711-0.0839l-1.3232-8.3741
		c-3.4815-1.5634-6.96-3.4853-10.4014-5.7685l5.1426,15.958h-8.7364c-8.6142-2.3799-19.3056-4.2891-31.541-4.3184
		c-13.0049-0.0049-27.7226,2.2168-43.0908,8.3809c-6.4082,2.5674-9.5215,9.8447-6.9541,16.2529
		c2.5684,6.4082,9.8457,9.5205,16.2559,6.9531c12.1914-4.8818,23.5898-6.582,33.789-6.5859
		c3.7881-0.0019,7.4053,0.2402,10.8213,0.6475v46.9687c0,7.8477,5.6445,14.3692,13.0947,15.752v6.2812h25.6563v-6h58.7949v6h25.6563
		v-6.2812c7.4502-1.3819,13.0957-7.9033,13.0957-15.752v-42.0537l32.2636-78.1064
		C264.3935,30.8515,261.417,21.8535,254.3632,18.9414z"/>
	<path d="M170.6572,44.0449c11.8984,3.5703,24.4404-3.1817,28.0107-15.0801s-3.1826-24.4395-15.082-28.0098
		c-11.8984-3.5703-24.4395,3.1797-28.0107,15.0801C152.0058,27.9335,158.7578,40.4746,170.6572,44.0449z"/>
	<path d="M74.2558,122.2773h-62.375C5.3193,122.2773,0,127.5957,0,134.1582v21.3847c0,0.7471,1.125,1.4072,3.1005,1.9844v23.7031
		h79.9346v-23.7031c1.9766-0.5772,3.1016-1.2373,3.1016-1.9844v-21.3847C86.1367,127.5957,80.8173,122.2773,74.2558,122.2773z"/>
	<path d="M148.5088,83.6181c0.039,0,0.0771,0,0.1152,0c8.8213,0.0039,15.8574-2.6982,20.6142-5.4004
		c4.7725-2.7138,7.377-5.4209,7.7774-5.8398c2.832-3.0127,2.8799-7.6406,0.2363-10.7012c-0.1806-0.2099-0.373-0.4121-0.5791-0.6055
		c-3.1963-3.0078-8.2129-2.8759-11.2451,0.2793l-0.002-0.0009c0,0-0.0019,0.0019-0.0107,0.0107
		c-0.1602,0.1611-1.8252,1.7539-4.6318,3.2461c-2.1631,1.1504-4.9541,2.2471-8.3692,2.7393
		c-1.1885,0.1718-2.4492,0.2724-3.79,0.2734c-6.2539-0.0273-14.4912-2.044-25.0928-9.9277c-0.042-0.0313-0.083-0.0586-0.125-0.0899
		c-2.4394-1.832-5.584-2.0566-8.1699-0.8584c-1.1602,0.5371-2.208,1.3604-3.0293,2.4541c-0.126,0.168-0.2373,0.3418-0.3477,0.5166
		c-2.2226,3.4903-1.4199,8.1582,1.9454,10.6856c0.6552,0.4931,1.3056,0.9609,1.956,1.4228
		c3.7656,2.6758,7.4522,4.8262,11.0332,6.5254c5.7119,2.71,11.1533,4.2666,16.2041,4.9092
		C144.8906,83.498,146.7314,83.6181,148.5088,83.6181z M165.3662,61.415v0.001l-0.002-0.003L165.3662,61.415z"/>
</g>
</svg>
